<mxfile host="app.diagrams.net" modified="2024-07-01T09:26:37.484Z" agent="Mozilla/5.0 (Windows NT 10.0; Win64; x64) AppleWebKit/537.36 (KHTML, like Gecko) Chrome/125.0.0.0 Safari/537.36" etag="_6TGP86C4YQAQFYWFmyy" version="24.6.4" type="github">
  <diagram name="第 1 页" id="p23nzwewCbX1eRrqPVwt">
    <mxGraphModel dx="2074" dy="1116" grid="1" gridSize="10" guides="1" tooltips="1" connect="1" arrows="1" fold="1" page="1" pageScale="1" pageWidth="827" pageHeight="1169" math="0" shadow="0">
      <root>
        <mxCell id="0" />
        <mxCell id="1" parent="0" />
        <mxCell id="3xAxlQf88jidDhbGyubO-1" value="" style="swimlane;startSize=0;strokeColor=#666666;labelBackgroundColor=#D5E8D4;fillColor=#E6E6E6;gradientColor=#b3b3b3;rounded=1;strokeWidth=2;" vertex="1" parent="1">
          <mxGeometry x="64" y="210" width="330" height="400" as="geometry" />
        </mxCell>
        <mxCell id="3xAxlQf88jidDhbGyubO-3" value="微信小程序中" style="text;html=1;align=center;verticalAlign=middle;whiteSpace=wrap;rounded=0;fontStyle=1;fontSize=18;labelBackgroundColor=none;fontColor=#080808;" vertex="1" parent="3xAxlQf88jidDhbGyubO-1">
          <mxGeometry x="30" y="40" width="130" height="30" as="geometry" />
        </mxCell>
        <mxCell id="3xAxlQf88jidDhbGyubO-13" value="" style="rounded=0;whiteSpace=wrap;html=1;labelBackgroundColor=none;fillColor=#182E3E;strokeColor=#FFFFFF;fontColor=#FFFFFF;" vertex="1" parent="3xAxlQf88jidDhbGyubO-1">
          <mxGeometry y="340" width="330" height="60" as="geometry" />
        </mxCell>
        <mxCell id="3xAxlQf88jidDhbGyubO-14" value="" style="rounded=0;whiteSpace=wrap;html=1;labelBackgroundColor=none;fillColor=#182E3E;strokeColor=#FFFFFF;fontColor=#FFFFFF;" vertex="1" parent="3xAxlQf88jidDhbGyubO-1">
          <mxGeometry x="50" y="355" width="90" height="30" as="geometry" />
        </mxCell>
        <mxCell id="3xAxlQf88jidDhbGyubO-15" value="采样指导" style="text;html=1;align=center;verticalAlign=middle;whiteSpace=wrap;rounded=0;labelBackgroundColor=none;fontColor=#FFFFFF;" vertex="1" parent="3xAxlQf88jidDhbGyubO-1">
          <mxGeometry x="60" y="355" width="60" height="30" as="geometry" />
        </mxCell>
        <mxCell id="3xAxlQf88jidDhbGyubO-16" value="" style="rounded=0;whiteSpace=wrap;html=1;labelBackgroundColor=none;fillColor=#182E3E;strokeColor=#FFFFFF;fontColor=#FFFFFF;" vertex="1" parent="3xAxlQf88jidDhbGyubO-1">
          <mxGeometry x="190" y="355" width="90" height="30" as="geometry" />
        </mxCell>
        <mxCell id="3xAxlQf88jidDhbGyubO-17" value="用户入口" style="text;html=1;align=center;verticalAlign=middle;whiteSpace=wrap;rounded=0;labelBackgroundColor=none;fontColor=#FFFFFF;" vertex="1" parent="3xAxlQf88jidDhbGyubO-1">
          <mxGeometry x="205" y="355" width="60" height="30" as="geometry" />
        </mxCell>
        <mxCell id="3xAxlQf88jidDhbGyubO-10" value="" style="rounded=0;whiteSpace=wrap;html=1;labelBackgroundColor=none;fillColor=#182E3E;strokeColor=#FFFFFF;fontColor=#FFFFFF;" vertex="1" parent="1">
          <mxGeometry x="82.5" y="749.5" width="100" height="50" as="geometry" />
        </mxCell>
        <mxCell id="3xAxlQf88jidDhbGyubO-20" value="" style="edgeStyle=orthogonalEdgeStyle;rounded=0;orthogonalLoop=1;jettySize=auto;html=1;strokeColor=#23445D;" edge="1" parent="1" source="3xAxlQf88jidDhbGyubO-11" target="3xAxlQf88jidDhbGyubO-19">
          <mxGeometry relative="1" as="geometry" />
        </mxCell>
        <mxCell id="3xAxlQf88jidDhbGyubO-11" value="新用户注册" style="text;html=1;align=center;verticalAlign=middle;whiteSpace=wrap;rounded=0;labelBackgroundColor=none;fontColor=#FFFFFF;" vertex="1" parent="1">
          <mxGeometry x="95" y="759.5" width="75" height="30" as="geometry" />
        </mxCell>
        <mxCell id="3xAxlQf88jidDhbGyubO-19" value="填写用户身份证号；&lt;div&gt;登陆密码；&lt;/div&gt;&lt;div&gt;确认密码；&lt;br&gt;&lt;div&gt;姓名；&lt;/div&gt;&lt;div&gt;性别；&lt;/div&gt;&lt;div&gt;年龄；&lt;/div&gt;&lt;div&gt;民族；&lt;/div&gt;&lt;div&gt;手机号；&lt;/div&gt;&lt;div&gt;地址；&lt;/div&gt;&lt;div&gt;&lt;br&gt;&lt;/div&gt;&lt;div&gt;&lt;b&gt;绑定样本&lt;/b&gt;&lt;/div&gt;&lt;/div&gt;&lt;div&gt;&lt;b&gt;采样日期&lt;/b&gt;&lt;/div&gt;" style="whiteSpace=wrap;html=1;strokeColor=#FFFFFF;fontColor=#FFFFFF;fillColor=#182E3E;" vertex="1" parent="1">
          <mxGeometry x="230" y="680" width="120" height="190" as="geometry" />
        </mxCell>
        <mxCell id="3xAxlQf88jidDhbGyubO-23" value="" style="swimlane;startSize=0;strokeColor=#666666;labelBackgroundColor=#D5E8D4;fillColor=#E6E6E6;gradientColor=#b3b3b3;rounded=1;strokeWidth=2;" vertex="1" parent="1">
          <mxGeometry x="430" y="210" width="350" height="400" as="geometry" />
        </mxCell>
        <mxCell id="3xAxlQf88jidDhbGyubO-24" value="微信小程序中" style="text;html=1;align=center;verticalAlign=middle;whiteSpace=wrap;rounded=0;fontStyle=1;fontSize=18;labelBackgroundColor=none;fontColor=#080808;" vertex="1" parent="3xAxlQf88jidDhbGyubO-23">
          <mxGeometry x="30" y="40" width="130" height="30" as="geometry" />
        </mxCell>
        <mxCell id="3xAxlQf88jidDhbGyubO-30" value="" style="rounded=1;whiteSpace=wrap;html=1;strokeColor=#FFFFFF;fontColor=#FFFFFF;fillColor=#182E3E;" vertex="1" parent="3xAxlQf88jidDhbGyubO-23">
          <mxGeometry x="80" y="120" width="240" height="40" as="geometry" />
        </mxCell>
        <mxCell id="3xAxlQf88jidDhbGyubO-32" value="身份证号" style="text;html=1;align=center;verticalAlign=middle;whiteSpace=wrap;rounded=0;fontColor=#080808;fontStyle=1" vertex="1" parent="3xAxlQf88jidDhbGyubO-23">
          <mxGeometry x="10" y="125" width="60" height="30" as="geometry" />
        </mxCell>
        <mxCell id="3xAxlQf88jidDhbGyubO-33" value="" style="rounded=1;whiteSpace=wrap;html=1;strokeColor=#FFFFFF;fontColor=#FFFFFF;fillColor=#182E3E;" vertex="1" parent="3xAxlQf88jidDhbGyubO-23">
          <mxGeometry x="80" y="180" width="240" height="40" as="geometry" />
        </mxCell>
        <mxCell id="3xAxlQf88jidDhbGyubO-34" value="登陆密码" style="text;html=1;align=center;verticalAlign=middle;whiteSpace=wrap;rounded=0;fontColor=#080808;fontStyle=1" vertex="1" parent="3xAxlQf88jidDhbGyubO-23">
          <mxGeometry x="10" y="185" width="60" height="30" as="geometry" />
        </mxCell>
        <mxCell id="3xAxlQf88jidDhbGyubO-35" value="" style="rounded=0;whiteSpace=wrap;html=1;labelBackgroundColor=none;fillColor=#182E3E;strokeColor=#FFFFFF;fontColor=#FFFFFF;" vertex="1" parent="3xAxlQf88jidDhbGyubO-23">
          <mxGeometry x="10" y="330" width="100" height="50" as="geometry" />
        </mxCell>
        <mxCell id="3xAxlQf88jidDhbGyubO-36" value="新用户注册" style="text;html=1;align=center;verticalAlign=middle;whiteSpace=wrap;rounded=0;labelBackgroundColor=none;fontColor=#FFFFFF;" vertex="1" parent="3xAxlQf88jidDhbGyubO-23">
          <mxGeometry x="25" y="340" width="75" height="30" as="geometry" />
        </mxCell>
        <mxCell id="3xAxlQf88jidDhbGyubO-37" value="" style="rounded=0;whiteSpace=wrap;html=1;labelBackgroundColor=none;fillColor=#182E3E;strokeColor=#FFFFFF;fontColor=#FFFFFF;" vertex="1" parent="3xAxlQf88jidDhbGyubO-23">
          <mxGeometry x="125" y="330" width="100" height="50" as="geometry" />
        </mxCell>
        <mxCell id="3xAxlQf88jidDhbGyubO-38" value="点击登陆" style="text;html=1;align=center;verticalAlign=middle;whiteSpace=wrap;rounded=0;labelBackgroundColor=none;fontColor=#FFFFFF;" vertex="1" parent="3xAxlQf88jidDhbGyubO-23">
          <mxGeometry x="140" y="340" width="75" height="30" as="geometry" />
        </mxCell>
        <mxCell id="3xAxlQf88jidDhbGyubO-41" value="" style="rounded=0;whiteSpace=wrap;html=1;labelBackgroundColor=none;fillColor=#182E3E;strokeColor=#FFFFFF;fontColor=#FFFFFF;" vertex="1" parent="3xAxlQf88jidDhbGyubO-23">
          <mxGeometry x="240" y="330" width="100" height="50" as="geometry" />
        </mxCell>
        <mxCell id="3xAxlQf88jidDhbGyubO-42" value="找回密码" style="text;html=1;align=center;verticalAlign=middle;whiteSpace=wrap;rounded=0;labelBackgroundColor=none;fontColor=#FFFFFF;" vertex="1" parent="3xAxlQf88jidDhbGyubO-23">
          <mxGeometry x="255" y="340" width="75" height="30" as="geometry" />
        </mxCell>
        <mxCell id="3xAxlQf88jidDhbGyubO-39" value="" style="rounded=0;whiteSpace=wrap;html=1;labelBackgroundColor=none;fillColor=#d5e8d4;strokeColor=#82b366;gradientColor=#97d077;" vertex="1" parent="1">
          <mxGeometry x="381" y="820" width="70" height="30" as="geometry" />
        </mxCell>
        <mxCell id="3xAxlQf88jidDhbGyubO-40" value="扫一扫，可以扫描条码录入" style="text;html=1;align=center;verticalAlign=middle;whiteSpace=wrap;rounded=0;labelBackgroundColor=none;fillColor=#d5e8d4;gradientColor=#97d077;strokeColor=#82b366;" vertex="1" parent="1">
          <mxGeometry x="376" y="820" width="164" height="30" as="geometry" />
        </mxCell>
        <mxCell id="3xAxlQf88jidDhbGyubO-43" value="" style="edgeStyle=orthogonalEdgeStyle;rounded=0;orthogonalLoop=1;jettySize=auto;html=1;strokeColor=#82b366;fillColor=#d5e8d4;gradientColor=#97d077;" edge="1" parent="1">
          <mxGeometry relative="1" as="geometry">
            <mxPoint x="320" y="836" as="sourcePoint" />
            <mxPoint x="380" y="836" as="targetPoint" />
          </mxGeometry>
        </mxCell>
        <mxCell id="3xAxlQf88jidDhbGyubO-45" value="采样，自动生成采样日期" style="text;html=1;align=center;verticalAlign=middle;whiteSpace=wrap;rounded=0;labelBackgroundColor=none;fillColor=#d5e8d4;gradientColor=#97d077;strokeColor=#82b366;" vertex="1" parent="1">
          <mxGeometry x="560" y="820" width="164" height="30" as="geometry" />
        </mxCell>
        <mxCell id="3xAxlQf88jidDhbGyubO-48" value="" style="edgeStyle=orthogonalEdgeStyle;rounded=0;orthogonalLoop=1;jettySize=auto;html=1;strokeColor=#82b366;fillColor=#d5e8d4;gradientColor=#97d077;" edge="1" parent="1">
          <mxGeometry relative="1" as="geometry">
            <mxPoint x="512" y="835" as="sourcePoint" />
            <mxPoint x="572" y="835" as="targetPoint" />
          </mxGeometry>
        </mxCell>
        <mxCell id="3xAxlQf88jidDhbGyubO-49" value="Text" style="text;html=1;align=center;verticalAlign=middle;whiteSpace=wrap;rounded=0;fontColor=#FFFFFF;" vertex="1" parent="1">
          <mxGeometry x="400" y="490" width="60" height="30" as="geometry" />
        </mxCell>
        <mxCell id="3xAxlQf88jidDhbGyubO-50" value="&lt;font color=&quot;#080808&quot;&gt;绑定样本后，进行采样过程&lt;/font&gt;" style="text;html=1;align=center;verticalAlign=middle;resizable=0;points=[];autosize=1;strokeColor=none;fillColor=none;fontColor=#FFFFFF;fontStyle=1" vertex="1" parent="1">
          <mxGeometry x="451" y="769.5" width="170" height="30" as="geometry" />
        </mxCell>
      </root>
    </mxGraphModel>
  </diagram>
</mxfile>
